# xmcd CD database file
# Copyright (C) 1995 Ti Kan
#
# Track frame offsets:
#	182
#	14082
#	27815
#	47422
#	66575
#	84277
#	101935
#	118380
#	136035
#	155425
#
# Disc length: 2290 seconds
#
# Revision: 1
# Processed by: cddbd v1.4b41PL1 Copyright (c) Steve Scherf et al.
# Submitted via: xmcd 1.4
#
DISCID=8408f00a
DTITLE=Southside Johnny And The Asbury Jukes - The Jukes
DYEAR=1900
DGENRE=
TTITLE0=All I Want Is Everything
TTITLE1=I'm So Anxious
TTITLE2=Paris
TTITLE3=Security
TTITLE4=Living In The Real World
TTITLE5=Your Reply 
TTITLE6=The Time
TTITLE7=I Remember Last Night
TTITLE8=Wait In Vain
TTITLE9=Vertigo
EXTD=
EXTT0=
EXTT1=
EXTT2=
EXTT3=
EXTT4=
EXTT5=
EXTT6=
EXTT7=
EXTT8=
EXTT9=
PLAYORDER=
